<svg id="Capa_1" enable-background="new 0 0 511.997 511.997" height="512" viewBox="0 0 511.997 511.997" width="512" xmlns="http://www.w3.org/2000/svg"><g><path d="m286.28 245.608c0-51.356-41.781-93.139-93.137-93.139s-93.136 41.782-93.136 93.139 41.78 93.139 93.136 93.139 93.137-41.783 93.137-93.139zm-166.273 0c0-40.329 32.809-73.139 73.136-73.139 40.328 0 73.137 32.81 73.137 73.139s-32.809 73.139-73.137 73.139c-40.327 0-73.136-32.81-73.136-73.139z"/><path d="m197.874 293.626 21.656-43.567c.125-.251.238-.522.341-.783 2.539-6.439-2.371-13.668-9.296-13.668h-18.718l14.49-29.111c2.461-4.944.448-10.947-4.496-13.408-4.944-2.463-10.948-.448-13.408 4.496l-21.685 43.567c-3.253 6.529 1.683 14.456 8.973 14.456h18.706l-14.473 29.116c-2.458 4.945-.441 10.947 4.504 13.406 1.431.711 2.948 1.047 4.443 1.047 3.677 0 7.215-2.035 8.963-5.551z"/><path d="m496.379 260.722h-11.655v-52.758c0-5.522-4.478-10-10-10s-10 4.478-10 10v52.758h-39.95v-52.758c0-5.522-4.478-10-10-10s-10 4.478-10 10v52.758h-11.627c-8.515 0-15.442 6.928-15.442 15.442v32.967c0 7.971 6.072 14.549 13.832 15.357v26.027c0 24.421 19.154 44.445 43.227 45.855v59.619c0 19.854-16.151 36.006-36.004 36.006h-163.354c-21.181 0-32.263-18.113-32.263-36.006v-27.669h130.677c17.377 0 31.515-14.138 31.515-31.515 0-17.179-13.82-31.183-30.925-31.5v-152.793c10.922 3.556 23.415 1.01 32.077-7.652 5.946-5.947 9.222-13.864 9.222-22.293 0-8.43-3.275-16.347-9.222-22.293l-6.425-6.425v-111.481c0-13.704-11.148-24.854-24.853-24.854h-23.13c-13.704 0-24.854 11.149-24.854 24.854v38.643l-71.79-71.792c-12.293-12.291-32.293-12.291-44.586 0l-161.452 161.457c-5.946 5.947-9.222 13.864-9.222 22.293 0 8.43 3.275 16.347 9.21 22.28 5.934 5.955 13.85 9.234 22.289 9.234h.001c7.49 0 14.563-2.588 20.201-7.322v148.144c-17.105.317-30.924 14.321-30.924 31.5 0 17.377 14.137 31.515 31.514 31.515h130.677v27.671c0 31.929 22.468 56.006 52.263 56.006h163.354c30.881 0 56.004-25.124 56.004-56.006v-59.619c24.073-1.411 43.227-21.435 43.227-45.855v-26.027c7.76-.808 13.832-7.387 13.832-15.357v-32.967c-.001-8.516-6.929-15.444-15.444-15.444zm-189.153-218.354c0-2.631 2.223-4.854 4.854-4.854h23.13c2.63 0 4.853 2.223 4.853 4.854v91.481l-32.836-32.837v-58.644zm-267.427 158.763c-2.154 2.162-5.04 3.353-8.125 3.353-3.084 0-5.969-1.19-8.136-3.364-2.169-2.169-3.363-5.063-3.363-8.15s1.194-5.981 3.364-8.15l161.453-161.459c2.247-2.248 5.198-3.371 8.15-3.371 2.951 0 5.903 1.124 8.15 3.371l151.052 151.056c2.169 2.169 3.363 5.063 3.363 8.15s-1.194 5.981-3.364 8.15c-4.486 4.486-11.785 4.486-16.271 0l-135.858-135.862c-1.875-1.875-4.419-2.929-7.071-2.929s-5.196 1.054-7.071 2.929zm1.153 195.674c0-6.35 5.165-11.515 11.514-11.515h95.778c5.522 0 10-4.478 10-10s-4.478-10-10-10h-76.368v-167.951l121.267-121.27 121.267 121.269v167.952h-76.368c-5.522 0-10 4.478-10 10s4.478 10 10 10h95.778c6.35 0 11.515 5.165 11.515 11.515s-5.165 11.515-11.515 11.515h-281.354c-6.349 0-11.514-5.165-11.514-11.515zm356.752-116.083h94.117v23.852h-94.117zm80.286 69.794c0 14.305-11.638 25.942-25.942 25.942h-14.569c-14.304 0-25.941-11.638-25.941-25.942v-25.942h66.453v25.942z"/><path d="m193.199 385.291c5.522 0 9.972-4.478 9.972-10s-4.506-10-10.028-10-10 4.478-10 10 4.478 10 10 10z"/></g></svg>